<mxfile host="app.diagrams.net" agent="Mozilla/5.0 (Macintosh; Intel Mac OS X 10_15_7) AppleWebKit/537.36 (KHTML, like Gecko) Chrome/131.0.0.0 Safari/537.36" version="25.0.1">
  <diagram name="Страница — 1" id="TT4qeqGrXuM3BmTKuCui">
    <mxGraphModel dx="3453" dy="1744" grid="0" gridSize="10" guides="1" tooltips="1" connect="1" arrows="1" fold="1" page="0" pageScale="1" pageWidth="827" pageHeight="1169" math="0" shadow="0">
      <root>
        <mxCell id="0" />
        <mxCell id="1" parent="0" />
        <mxCell id="zS3TrndBR62WH8lfIMHe-1" value="&lt;b&gt;&lt;font style=&quot;font-size: 26px;&quot;&gt;Unauthenticated User&lt;/font&gt;&lt;/b&gt;" style="rounded=1;whiteSpace=wrap;html=1;" parent="1" vertex="1">
          <mxGeometry x="-116" y="-89" width="255" height="131" as="geometry" />
        </mxCell>
        <mxCell id="zS3TrndBR62WH8lfIMHe-7" value="" style="endArrow=none;html=1;rounded=0;fontSize=12;startSize=8;endSize=8;curved=1;exitX=0.5;exitY=1;exitDx=0;exitDy=0;" parent="1" source="zS3TrndBR62WH8lfIMHe-1" target="zS3TrndBR62WH8lfIMHe-8" edge="1">
          <mxGeometry width="50" height="50" relative="1" as="geometry">
            <mxPoint x="175" y="225" as="sourcePoint" />
            <mxPoint x="-49" y="218" as="targetPoint" />
          </mxGeometry>
        </mxCell>
        <mxCell id="zS3TrndBR62WH8lfIMHe-8" value="&lt;font size=&quot;1&quot; style=&quot;&quot;&gt;&lt;b style=&quot;font-size: 26px;&quot;&gt;Search flights&lt;/b&gt;&lt;/font&gt;" style="ellipse;whiteSpace=wrap;html=1;" parent="1" vertex="1">
          <mxGeometry x="-137" y="251" width="297" height="129" as="geometry" />
        </mxCell>
        <mxCell id="zS3TrndBR62WH8lfIMHe-10" value="&lt;font size=&quot;1&quot; style=&quot;&quot;&gt;&lt;b style=&quot;font-size: 26px;&quot;&gt;View Flight Details&lt;/b&gt;&lt;/font&gt;" style="ellipse;whiteSpace=wrap;html=1;" parent="1" vertex="1">
          <mxGeometry x="188" y="251" width="297" height="129" as="geometry" />
        </mxCell>
        <mxCell id="zS3TrndBR62WH8lfIMHe-11" value="&lt;span style=&quot;font-size: 26px;&quot;&gt;&lt;b&gt;User&lt;/b&gt;&lt;/span&gt;" style="rounded=1;whiteSpace=wrap;html=1;" parent="1" vertex="1">
          <mxGeometry x="643" y="-176" width="255" height="131" as="geometry" />
        </mxCell>
        <mxCell id="zS3TrndBR62WH8lfIMHe-12" value="&lt;b&gt;&lt;font style=&quot;font-size: 26px;&quot;&gt;Admin&lt;/font&gt;&lt;/b&gt;" style="rounded=1;whiteSpace=wrap;html=1;" parent="1" vertex="1">
          <mxGeometry x="766" y="475" width="255" height="131" as="geometry" />
        </mxCell>
        <mxCell id="zS3TrndBR62WH8lfIMHe-13" value="" style="endArrow=none;html=1;rounded=0;fontSize=12;startSize=8;endSize=8;curved=1;exitX=0.5;exitY=1;exitDx=0;exitDy=0;entryX=0.5;entryY=0;entryDx=0;entryDy=0;" parent="1" source="zS3TrndBR62WH8lfIMHe-11" target="zS3TrndBR62WH8lfIMHe-8" edge="1">
          <mxGeometry width="50" height="50" relative="1" as="geometry">
            <mxPoint x="646" y="13" as="sourcePoint" />
            <mxPoint x="696" y="-37" as="targetPoint" />
          </mxGeometry>
        </mxCell>
        <mxCell id="zS3TrndBR62WH8lfIMHe-14" value="" style="endArrow=none;html=1;rounded=0;fontSize=12;startSize=8;endSize=8;curved=1;exitX=0.5;exitY=1;exitDx=0;exitDy=0;" parent="1" source="zS3TrndBR62WH8lfIMHe-1" target="zS3TrndBR62WH8lfIMHe-10" edge="1">
          <mxGeometry width="50" height="50" relative="1" as="geometry">
            <mxPoint x="646" y="13" as="sourcePoint" />
            <mxPoint x="696" y="-37" as="targetPoint" />
          </mxGeometry>
        </mxCell>
        <mxCell id="zS3TrndBR62WH8lfIMHe-15" value="" style="endArrow=none;html=1;rounded=0;fontSize=12;startSize=8;endSize=8;curved=1;exitX=0.5;exitY=1;exitDx=0;exitDy=0;entryX=0.5;entryY=0;entryDx=0;entryDy=0;" parent="1" source="zS3TrndBR62WH8lfIMHe-11" target="zS3TrndBR62WH8lfIMHe-10" edge="1">
          <mxGeometry width="50" height="50" relative="1" as="geometry">
            <mxPoint x="608" y="13" as="sourcePoint" />
            <mxPoint x="658" y="-37" as="targetPoint" />
          </mxGeometry>
        </mxCell>
        <mxCell id="zS3TrndBR62WH8lfIMHe-18" value="&lt;b style=&quot;&quot;&gt;&lt;font style=&quot;font-size: 26px;&quot;&gt;View Boking History&lt;/font&gt;&lt;/b&gt;" style="ellipse;whiteSpace=wrap;html=1;" parent="1" vertex="1">
          <mxGeometry x="535" y="251" width="297" height="129" as="geometry" />
        </mxCell>
        <mxCell id="zS3TrndBR62WH8lfIMHe-19" value="&lt;b style=&quot;&quot;&gt;&lt;font style=&quot;font-size: 26px;&quot;&gt;Manage Booking&lt;/font&gt;&lt;/b&gt;" style="ellipse;whiteSpace=wrap;html=1;" parent="1" vertex="1">
          <mxGeometry x="898" y="242" width="297" height="129" as="geometry" />
        </mxCell>
        <mxCell id="zS3TrndBR62WH8lfIMHe-20" value="&lt;b style=&quot;&quot;&gt;&lt;font style=&quot;font-size: 26px;&quot;&gt;Log out&lt;/font&gt;&lt;/b&gt;" style="ellipse;whiteSpace=wrap;html=1;" parent="1" vertex="1">
          <mxGeometry x="1261" y="247" width="297" height="129" as="geometry" />
        </mxCell>
        <mxCell id="zS3TrndBR62WH8lfIMHe-21" value="&lt;b style=&quot;&quot;&gt;&lt;font style=&quot;font-size: 26px;&quot;&gt;Book Flight&lt;/font&gt;&lt;/b&gt;" style="ellipse;whiteSpace=wrap;html=1;" parent="1" vertex="1">
          <mxGeometry x="1638" y="247" width="297" height="129" as="geometry" />
        </mxCell>
        <mxCell id="zS3TrndBR62WH8lfIMHe-22" value="&lt;font style=&quot;font-size: 26px;&quot;&gt;&lt;b style=&quot;&quot;&gt;&lt;font style=&quot;font-size: 26px;&quot;&gt;Make &lt;/font&gt;&lt;/b&gt;&lt;b style=&quot;&quot;&gt;Payment&lt;/b&gt;&lt;/font&gt;" style="ellipse;whiteSpace=wrap;html=1;" parent="1" vertex="1">
          <mxGeometry x="1998" y="242" width="297" height="129" as="geometry" />
        </mxCell>
        <mxCell id="zS3TrndBR62WH8lfIMHe-24" value="" style="endArrow=none;html=1;rounded=0;fontSize=12;startSize=8;endSize=8;curved=1;exitX=0.5;exitY=1;exitDx=0;exitDy=0;entryX=0.5;entryY=0;entryDx=0;entryDy=0;" parent="1" source="zS3TrndBR62WH8lfIMHe-11" target="zS3TrndBR62WH8lfIMHe-18" edge="1">
          <mxGeometry width="50" height="50" relative="1" as="geometry">
            <mxPoint x="1157" y="457" as="sourcePoint" />
            <mxPoint x="1207" y="407" as="targetPoint" />
          </mxGeometry>
        </mxCell>
        <mxCell id="zS3TrndBR62WH8lfIMHe-25" value="" style="endArrow=none;html=1;rounded=0;fontSize=12;startSize=8;endSize=8;curved=1;exitX=0.5;exitY=1;exitDx=0;exitDy=0;entryX=0.5;entryY=0;entryDx=0;entryDy=0;" parent="1" source="zS3TrndBR62WH8lfIMHe-11" target="zS3TrndBR62WH8lfIMHe-19" edge="1">
          <mxGeometry width="50" height="50" relative="1" as="geometry">
            <mxPoint x="1157" y="457" as="sourcePoint" />
            <mxPoint x="1207" y="407" as="targetPoint" />
          </mxGeometry>
        </mxCell>
        <mxCell id="zS3TrndBR62WH8lfIMHe-26" value="" style="endArrow=none;html=1;rounded=0;fontSize=12;startSize=8;endSize=8;curved=1;exitX=0.5;exitY=1;exitDx=0;exitDy=0;entryX=0.5;entryY=0;entryDx=0;entryDy=0;" parent="1" source="zS3TrndBR62WH8lfIMHe-11" target="zS3TrndBR62WH8lfIMHe-20" edge="1">
          <mxGeometry width="50" height="50" relative="1" as="geometry">
            <mxPoint x="1157" y="457" as="sourcePoint" />
            <mxPoint x="1207" y="407" as="targetPoint" />
          </mxGeometry>
        </mxCell>
        <mxCell id="zS3TrndBR62WH8lfIMHe-27" value="" style="endArrow=none;html=1;rounded=0;fontSize=12;startSize=8;endSize=8;curved=1;exitX=0.5;exitY=1;exitDx=0;exitDy=0;entryX=0.5;entryY=0;entryDx=0;entryDy=0;" parent="1" source="zS3TrndBR62WH8lfIMHe-11" target="zS3TrndBR62WH8lfIMHe-21" edge="1">
          <mxGeometry width="50" height="50" relative="1" as="geometry">
            <mxPoint x="1157" y="457" as="sourcePoint" />
            <mxPoint x="1207" y="407" as="targetPoint" />
          </mxGeometry>
        </mxCell>
        <mxCell id="zS3TrndBR62WH8lfIMHe-28" value="" style="endArrow=none;html=1;rounded=0;fontSize=12;startSize=8;endSize=8;curved=1;exitX=0.5;exitY=1;exitDx=0;exitDy=0;entryX=0.5;entryY=0;entryDx=0;entryDy=0;" parent="1" source="zS3TrndBR62WH8lfIMHe-11" target="zS3TrndBR62WH8lfIMHe-22" edge="1">
          <mxGeometry width="50" height="50" relative="1" as="geometry">
            <mxPoint x="1157" y="457" as="sourcePoint" />
            <mxPoint x="1207" y="407" as="targetPoint" />
          </mxGeometry>
        </mxCell>
        <mxCell id="zS3TrndBR62WH8lfIMHe-29" value="&lt;b style=&quot;&quot;&gt;&lt;font style=&quot;font-size: 26px;&quot;&gt;Register/Login&lt;/font&gt;&lt;/b&gt;" style="ellipse;whiteSpace=wrap;html=1;" parent="1" vertex="1">
          <mxGeometry x="-462" y="247" width="297" height="129" as="geometry" />
        </mxCell>
        <mxCell id="zS3TrndBR62WH8lfIMHe-30" value="" style="endArrow=none;html=1;rounded=0;fontSize=12;startSize=8;endSize=8;curved=1;exitX=0.5;exitY=1;exitDx=0;exitDy=0;entryX=0.5;entryY=0;entryDx=0;entryDy=0;" parent="1" source="zS3TrndBR62WH8lfIMHe-1" target="zS3TrndBR62WH8lfIMHe-29" edge="1">
          <mxGeometry width="50" height="50" relative="1" as="geometry">
            <mxPoint x="1023" y="443" as="sourcePoint" />
            <mxPoint x="1073" y="393" as="targetPoint" />
          </mxGeometry>
        </mxCell>
        <mxCell id="zS3TrndBR62WH8lfIMHe-33" value="" style="endArrow=none;html=1;rounded=0;fontSize=12;startSize=8;endSize=8;curved=1;exitX=0.5;exitY=1;exitDx=0;exitDy=0;entryX=0.5;entryY=0;entryDx=0;entryDy=0;" parent="1" source="zS3TrndBR62WH8lfIMHe-12" target="zS3TrndBR62WH8lfIMHe-35" edge="1">
          <mxGeometry width="50" height="50" relative="1" as="geometry">
            <mxPoint x="951" y="517" as="sourcePoint" />
            <mxPoint x="612" y="764" as="targetPoint" />
          </mxGeometry>
        </mxCell>
        <mxCell id="zS3TrndBR62WH8lfIMHe-34" value="" style="endArrow=none;html=1;rounded=0;fontSize=12;startSize=8;endSize=8;curved=1;exitX=0.5;exitY=1;exitDx=0;exitDy=0;entryX=0.5;entryY=0;entryDx=0;entryDy=0;" parent="1" source="zS3TrndBR62WH8lfIMHe-12" target="zS3TrndBR62WH8lfIMHe-36" edge="1">
          <mxGeometry width="50" height="50" relative="1" as="geometry">
            <mxPoint x="951" y="517" as="sourcePoint" />
            <mxPoint x="1054" y="766" as="targetPoint" />
          </mxGeometry>
        </mxCell>
        <mxCell id="zS3TrndBR62WH8lfIMHe-35" value="&lt;span style=&quot;font-size: 26px;&quot;&gt;&lt;b&gt;Manage Users&lt;/b&gt;&lt;/span&gt;" style="ellipse;whiteSpace=wrap;html=1;" parent="1" vertex="1">
          <mxGeometry x="553" y="665" width="297" height="129" as="geometry" />
        </mxCell>
        <mxCell id="zS3TrndBR62WH8lfIMHe-36" value="&lt;font size=&quot;1&quot; style=&quot;&quot;&gt;&lt;b style=&quot;font-size: 26px;&quot;&gt;Manage Flights&lt;/b&gt;&lt;/font&gt;" style="ellipse;whiteSpace=wrap;html=1;" parent="1" vertex="1">
          <mxGeometry x="936" y="665" width="297" height="129" as="geometry" />
        </mxCell>
        <mxCell id="o2RVMMMP8w5wuHEZnlCJ-3" value="&lt;span style=&quot;font-size: 26px;&quot;&gt;&lt;b&gt;Enter password&lt;/b&gt;&lt;/span&gt;" style="ellipse;whiteSpace=wrap;html=1;" parent="1" vertex="1">
          <mxGeometry x="-290" y="516" width="297" height="129" as="geometry" />
        </mxCell>
        <mxCell id="2NDi7pNyI0wd2GLDLp2E-1" value="&lt;font style=&quot;font-size: 18px;&quot;&gt;&amp;lt;&amp;lt;include&amp;gt;&amp;gt;&lt;/font&gt;" style="endArrow=classic;dashed=1;html=1;rounded=0;exitX=0.5;exitY=1;exitDx=0;exitDy=0;entryX=0.5;entryY=0;entryDx=0;entryDy=0;" edge="1" parent="1" source="zS3TrndBR62WH8lfIMHe-29" target="o2RVMMMP8w5wuHEZnlCJ-3">
          <mxGeometry width="50" height="50" relative="1" as="geometry">
            <mxPoint x="-153" y="462" as="sourcePoint" />
            <mxPoint x="-147" y="521" as="targetPoint" />
          </mxGeometry>
        </mxCell>
        <mxCell id="2NDi7pNyI0wd2GLDLp2E-5" value="&lt;span style=&quot;font-size: 26px;&quot;&gt;&lt;b&gt;Enter login&lt;/b&gt;&lt;/span&gt;" style="ellipse;whiteSpace=wrap;html=1;" vertex="1" parent="1">
          <mxGeometry x="-622" y="516" width="297" height="129" as="geometry" />
        </mxCell>
        <mxCell id="2NDi7pNyI0wd2GLDLp2E-6" value="&lt;font style=&quot;font-size: 18px;&quot;&gt;&amp;lt;&amp;lt;include&amp;gt;&amp;gt;&lt;/font&gt;" style="endArrow=classic;dashed=1;html=1;rounded=0;exitX=0.5;exitY=1;exitDx=0;exitDy=0;entryX=0.5;entryY=0;entryDx=0;entryDy=0;" edge="1" parent="1" source="zS3TrndBR62WH8lfIMHe-29" target="2NDi7pNyI0wd2GLDLp2E-5">
          <mxGeometry width="50" height="50" relative="1" as="geometry">
            <mxPoint x="-495" y="399" as="sourcePoint" />
            <mxPoint x="-323" y="554" as="targetPoint" />
          </mxGeometry>
        </mxCell>
        <mxCell id="2NDi7pNyI0wd2GLDLp2E-8" value="" style="endArrow=classic;dashed=1;html=1;rounded=0;entryX=0.5;entryY=1;entryDx=0;entryDy=0;exitX=0.5;exitY=0;exitDx=0;exitDy=0;" edge="1" parent="1" source="2NDi7pNyI0wd2GLDLp2E-9" target="zS3TrndBR62WH8lfIMHe-22">
          <mxGeometry width="50" height="50" relative="1" as="geometry">
            <mxPoint x="2022" y="591" as="sourcePoint" />
            <mxPoint x="2162" y="363" as="targetPoint" />
          </mxGeometry>
        </mxCell>
        <mxCell id="2NDi7pNyI0wd2GLDLp2E-10" value="&lt;font style=&quot;font-size: 18px;&quot;&gt;&amp;lt;&amp;lt;extend&amp;gt;&amp;gt;&lt;/font&gt;" style="edgeLabel;html=1;align=center;verticalAlign=middle;resizable=0;points=[];" vertex="1" connectable="0" parent="2NDi7pNyI0wd2GLDLp2E-8">
          <mxGeometry x="-0.0183" y="-3" relative="1" as="geometry">
            <mxPoint as="offset" />
          </mxGeometry>
        </mxCell>
        <mxCell id="2NDi7pNyI0wd2GLDLp2E-9" value="&lt;span style=&quot;font-size: 26px;&quot;&gt;&lt;b&gt;Apply Discount&lt;/b&gt;&lt;/span&gt;&lt;div&gt;&lt;span style=&quot;font-size: 26px;&quot;&gt;&lt;b&gt;&lt;br&gt;&lt;/b&gt;&lt;/span&gt;&lt;/div&gt;" style="ellipse;whiteSpace=wrap;html=1;" vertex="1" parent="1">
          <mxGeometry x="1938" y="516" width="297" height="129" as="geometry" />
        </mxCell>
        <mxCell id="2NDi7pNyI0wd2GLDLp2E-11" value="" style="endArrow=classic;dashed=1;html=1;rounded=0;exitX=0.5;exitY=0;exitDx=0;exitDy=0;entryX=0.5;entryY=1;entryDx=0;entryDy=0;" edge="1" parent="1" source="2NDi7pNyI0wd2GLDLp2E-14" target="zS3TrndBR62WH8lfIMHe-10">
          <mxGeometry width="50" height="50" relative="1" as="geometry">
            <mxPoint x="451" y="582" as="sourcePoint" />
            <mxPoint x="328" y="428" as="targetPoint" />
          </mxGeometry>
        </mxCell>
        <mxCell id="2NDi7pNyI0wd2GLDLp2E-12" value="&lt;font style=&quot;font-size: 18px;&quot;&gt;&amp;lt;&amp;lt;extend&amp;gt;&amp;gt;&lt;/font&gt;" style="edgeLabel;html=1;align=center;verticalAlign=middle;resizable=0;points=[];" vertex="1" connectable="0" parent="2NDi7pNyI0wd2GLDLp2E-11">
          <mxGeometry x="-0.0183" y="-3" relative="1" as="geometry">
            <mxPoint as="offset" />
          </mxGeometry>
        </mxCell>
        <mxCell id="2NDi7pNyI0wd2GLDLp2E-14" value="&lt;b style=&quot;&quot;&gt;&lt;font style=&quot;font-size: 26px;&quot;&gt;Filter &amp;amp; Sort&lt;/font&gt;&lt;/b&gt;" style="ellipse;whiteSpace=wrap;html=1;" vertex="1" parent="1">
          <mxGeometry x="256" y="516" width="297" height="129" as="geometry" />
        </mxCell>
      </root>
    </mxGraphModel>
  </diagram>
</mxfile>
